# 3ds Max Wavefront OBJ Exporter v0.99 - (c)2007 guruware
# File Created: 07.12.2022 13:39:42

mtllib cube.mtl

#
# object Box001
#

v  -25.6680 -17.4427 2.2672
v  14.3320 -17.4427 2.2672
v  14.3320 -17.4427 42.2672
v  -25.6680 22.5573 42.2672
v  14.3320 22.5573 42.2672
v  14.3320 22.5573 2.2672
v  -25.6680 22.5573 2.2672
v  -25.6680 -17.4427 42.2672
# 8 vertices

vn -0.5774 -0.5774 -0.5774
vn 0.5774 -0.5774 -0.5774
vn 0.5774 -0.5774 0.5774
vn -0.5774 0.5774 0.5774
vn 0.5774 0.5774 0.5774
vn 0.5774 0.5774 -0.5774
vn -0.7071 0.7071 -0.0000
vn -0.5774 0.5774 -0.5774
vn -0.5774 -0.5774 0.5774
# 9 vertex normals

vt 0.3547 0.8471 0.0000
vt 0.0681 0.8414 0.0000
vt 0.0737 0.5548 0.0000
vt 0.6470 0.5660 0.0000
vt 0.9336 0.5716 0.0000
vt 0.9280 0.8582 0.0000
vt 0.6470 0.5661 0.0000
vt 0.3659 0.1127 0.0000
vt 0.3546 0.3992 0.0000
vt 0.0681 0.3879 0.0000
vt 0.6524 0.1240 0.0000
vt 0.6411 0.4105 0.0000
vt 0.9389 0.1353 0.0000
vt 0.9276 0.4218 0.0000
vt 0.3604 0.5604 0.0000
vt 0.6414 0.8527 0.0000
vt 0.0794 0.1014 0.0000
# 17 texture coords

o Box001
g Box001
usemtl Material__25
s 2
f 1/1/1 2/2/2 3/3/3 
s 4
f 4/4/4 5/5/5 6/6/6 4/7/7 
s 8
f 3/8/3 5/9/5 4/10/4 
s 16
f 3/8/3 2/11/2 6/12/6 
s 32
f 1/13/1 7/14/8 6/12/6 
s 64
f 1/1/1 8/15/9 4/4/4 4/7/7 
s 4
f 6/6/6 7/16/8 4/7/7 
s 8
f 4/10/4 8/17/9 3/8/3 
s 64
f 4/7/7 7/16/8 1/1/1 
s 32
f 6/12/6 2/11/2 1/13/1 
s 16
f 6/12/6 5/9/5 3/8/3 
s 2
f 3/3/3 8/15/9 1/1/1 
# 2 polygons - 10 triangles

