# This file uses centimeters as units for non-parametric coordinates.

mtllib tree.mtl
g default
v -0.292319 0.300511 0.292319
v 0.292319 0.300511 0.292319
v -0.292319 0.977997 0.292319
v 0.292319 0.977997 0.292319
v -0.292319 0.977997 -0.292319
v 0.292319 0.977997 -0.292319
v -0.292319 0.300511 -0.292319
v 0.292319 0.300511 -0.292319
v -0.292319 0.833661 0.292319
v -0.292319 0.833661 -0.292319
v 0.292319 0.833661 -0.292319
v 0.292319 0.833661 0.292319
v -0.292319 0.464698 0.292319
v -0.292319 0.464698 -0.292319
v 0.292319 0.464698 -0.292319
v 0.292319 0.464698 0.292319
vt 0.593841 0.056352
vt 0.785800 0.056352
vt 0.593841 0.248311
vt 0.785800 0.248311
vt 0.593841 0.440270
vt 0.785800 0.440270
vt 0.593841 0.632229
vt 0.785800 0.632229
vt 0.593841 0.824188
vt 0.785800 0.824188
vt 0.977759 0.056352
vt 0.977759 0.248311
vt 0.401882 0.056352
vt 0.401882 0.248311
vt 0.593841 0.207415
vt 0.401882 0.207415
vt 0.593841 0.481166
vt 0.785800 0.481166
vt 0.977759 0.207415
vt 0.785800 0.207415
vt 0.593841 0.102873
vt 0.401882 0.102873
vt 0.593841 0.585708
vt 0.785800 0.585708
vt 0.977759 0.102873
vt 0.785800 0.102873
vn 0.000000 0.000000 1.000000
vn 0.000000 0.000000 1.000000
vn 0.000000 0.000000 1.000000
vn 0.000000 0.000000 1.000000
vn 0.000000 1.000000 0.000000
vn 0.000000 1.000000 0.000000
vn 0.000000 1.000000 0.000000
vn 0.000000 1.000000 0.000000
vn 0.000000 0.000000 -1.000000
vn 0.000000 0.000000 -1.000000
vn 0.000000 0.000000 -1.000000
vn 0.000000 0.000000 -1.000000
vn 0.000000 -1.000000 0.000000
vn 0.000000 -1.000000 0.000000
vn 0.000000 -1.000000 0.000000
vn 0.000000 -1.000000 0.000000
vn 1.000000 0.000000 0.000000
vn 1.000000 0.000000 0.000000
vn 1.000000 0.000000 0.000000
vn 1.000000 0.000000 0.000000
vn -1.000000 0.000000 0.000000
vn -1.000000 0.000000 0.000000
vn -1.000000 0.000000 0.000000
vn -1.000000 0.000000 0.000000
vn -1.000000 0.000000 0.000000
vn -1.000000 0.000000 0.000000
vn -1.000000 0.000000 0.000000
vn -1.000000 0.000000 0.000000
vn 0.000000 0.000000 -1.000000
vn 0.000000 0.000000 -1.000000
vn 0.000000 0.000000 -1.000000
vn 0.000000 0.000000 -1.000000
vn 1.000000 0.000000 0.000000
vn 1.000000 0.000000 0.000000
vn 1.000000 0.000000 0.000000
vn 1.000000 0.000000 0.000000
vn 0.000000 0.000000 1.000000
vn 0.000000 0.000000 1.000000
vn 0.000000 0.000000 1.000000
vn 0.000000 0.000000 1.000000
s 1
g pCube2
usemtl aiStandardSurface1SG
f 1/1/1 2/2/2 13/21/3
f 13/21/3 2/2/2 16/26/4
s 2
f 3/3/5 4/4/6 5/5/7
f 5/5/7 4/4/6 6/6/8
s 3
f 14/23/9 15/24/10 7/7/11
f 7/7/11 15/24/10 8/8/12
s 4
f 7/7/13 8/8/14 1/9/15
f 1/9/15 8/8/14 2/10/16
s 5
f 2/2/17 8/11/18 16/26/19
f 16/26/19 8/11/18 15/25/20
s 6
f 7/13/21 1/1/22 14/22/23
f 14/22/23 1/1/22 13/21/24
f 10/16/25 9/15/26 5/14/27
f 5/14/27 9/15/26 3/3/28
s 3
f 5/5/29 6/6/30 10/17/31
f 10/17/31 6/6/30 11/18/32
s 5
f 12/20/33 11/19/34 4/4/35
f 4/4/35 11/19/34 6/12/36
s 1
f 9/15/37 12/20/38 3/3/39
f 3/3/39 12/20/38 4/4/40
s 6
f 14/22/23 13/21/24 10/16/25
f 10/16/25 13/21/24 9/15/26
s 3
f 10/17/31 11/18/32 14/23/9
f 14/23/9 11/18/32 15/24/10
s 5
f 16/26/19 15/25/20 12/20/33
f 12/20/33 15/25/20 11/19/34
s 1
f 13/21/3 16/26/4 9/15/37
f 9/15/37 16/26/4 12/20/38
g default
v -0.200000 -0.058511 0.200000
v 0.200000 -0.058511 0.200000
v -0.200000 0.441489 0.200000
v 0.200000 0.441489 0.200000
v -0.200000 0.441489 -0.200000
v 0.200000 0.441489 -0.200000
v -0.200000 -0.058511 -0.200000
v 0.200000 -0.058511 -0.200000
v 0.051510 -0.058511 0.200000
v 0.051510 0.441489 0.200000
v 0.051510 0.441489 -0.200000
v 0.051510 -0.058511 -0.200000
vt 0.378380 0.919597
vt 0.213149 0.919515
vt 0.378462 0.754366
vt 0.213231 0.754284
vt 0.378544 0.589135
vt 0.213313 0.589053
vt 0.378626 0.423903
vt 0.213395 0.423822
vt 0.378708 0.258672
vt 0.213476 0.258590
vt 0.047918 0.919433
vt 0.048000 0.754202
vt 0.543611 0.919679
vt 0.543693 0.754448
vt 0.274487 0.919546
vt 0.274814 0.258621
vt 0.274569 0.754315
vt 0.274651 0.589083
vt 0.274732 0.423852
vn 0.000000 0.000000 1.000000
vn 0.000000 0.000000 1.000000
vn 0.000000 0.000000 1.000000
vn 0.000000 0.000000 1.000000
vn 0.000000 1.000000 0.000000
vn 0.000000 1.000000 0.000000
vn 0.000000 1.000000 0.000000
vn 0.000000 1.000000 0.000000
vn 0.000000 0.000000 -1.000000
vn 0.000000 0.000000 -1.000000
vn 0.000000 0.000000 -1.000000
vn 0.000000 0.000000 -1.000000
vn 0.000000 -1.000000 0.000000
vn 0.000000 -1.000000 0.000000
vn 0.000000 -1.000000 0.000000
vn 0.000000 -1.000000 0.000000
vn 1.000000 0.000000 0.000000
vn 1.000000 0.000000 0.000000
vn 1.000000 0.000000 0.000000
vn 1.000000 0.000000 0.000000
vn -1.000000 0.000000 0.000000
vn -1.000000 0.000000 0.000000
vn -1.000000 0.000000 0.000000
vn -1.000000 0.000000 0.000000
vn 0.000000 0.000000 1.000000
vn 0.000000 0.000000 1.000000
vn 0.000000 1.000000 0.000000
vn 0.000000 1.000000 0.000000
vn 0.000000 0.000000 -1.000000
vn 0.000000 0.000000 -1.000000
vn 0.000000 -1.000000 0.000000
vn 0.000000 -1.000000 0.000000
s 1
g pCube1
usemtl aiStandardSurface1SG
f 17/27/41 25/41/42 19/29/43
f 19/29/43 25/41/42 26/43/44
s 2
f 19/29/45 26/43/46 21/31/47
f 21/31/47 26/43/46 27/44/48
s 3
f 21/31/49 27/44/50 23/33/51
f 23/33/51 27/44/50 28/45/52
s 4
f 23/33/53 28/45/54 17/35/55
f 17/35/55 28/45/54 25/42/56
s 5
f 18/28/57 24/37/58 20/30/59
f 20/30/59 24/37/58 22/38/60
s 6
f 23/39/61 17/27/62 21/40/63
f 21/40/63 17/27/62 19/29/64
s 1
f 26/43/44 25/41/42 20/30/65
f 20/30/65 25/41/42 18/28/66
s 2
f 27/44/48 26/43/46 22/32/67
f 22/32/67 26/43/46 20/30/68
s 3
f 28/45/52 27/44/50 24/34/69
f 24/34/69 27/44/50 22/32/70
s 4
f 25/42/56 28/45/54 18/36/71
f 18/36/71 28/45/54 24/34/72
